<svg width="100" height="95" viewBox="0 0 100 95" fill="none" xmlns="http://www.w3.org/2000/svg">
<path d="M93.9164 25.4122C93.4215 23.5336 92.4135 21.8124 90.9942 20.4223C89.5749 19.0323 87.7946 18.0227 85.8331 17.4955C78.6664 15.833 49.9998 15.833 49.9998 15.833C49.9998 15.833 21.3331 15.833 14.1664 17.6538C12.205 18.181 10.4247 19.1906 9.00539 20.5807C7.58609 21.9707 6.57806 23.6919 6.08311 25.5705C4.77151 32.48 4.12993 39.4892 4.16644 46.5101C4.11969 53.5838 4.76131 60.6465 6.08311 67.608C6.62877 69.4282 7.65939 71.084 9.07538 72.4153C10.4914 73.7466 12.2449 74.7085 14.1664 75.208C21.3331 77.0288 49.9998 77.0288 49.9998 77.0288C49.9998 77.0288 78.6664 77.0288 85.8331 75.208C87.7946 74.6808 89.5749 73.6712 90.9942 72.2812C92.4135 70.8912 93.4215 69.1699 93.9164 67.2913C95.2179 60.4339 95.8595 53.4781 95.8331 46.5101C95.8799 39.4364 95.2382 32.3737 93.9164 25.4122Z" stroke="white" stroke-width="5" stroke-linecap="round" stroke-linejoin="round"/>
<path d="M40.625 59.4539L64.5833 46.5102L40.625 33.5664V59.4539Z" stroke="white" stroke-width="5" stroke-linecap="round" stroke-linejoin="round"/>
</svg>
