<svg width="36" height="36" viewBox="0 0 36 36" fill="none" xmlns="http://www.w3.org/2000/svg">
<path d="M33.999 25.9581V30.7754C34.0008 31.2226 33.909 31.6653 33.7295 32.0751C33.55 32.4848 33.2867 32.8526 32.9565 33.155C32.6263 33.4573 32.2365 33.6875 31.812 33.8307C31.3876 33.974 30.9378 34.0272 30.4915 33.987C25.5405 33.4501 20.7847 31.7616 16.6062 29.0573C12.7187 26.5919 9.42282 23.3025 6.95254 19.4227C4.23338 15.2336 2.54119 10.4641 2.01306 5.50072C1.97285 5.05667 2.02573 4.60914 2.16832 4.1866C2.31092 3.76407 2.5401 3.3758 2.84129 3.04651C3.14248 2.71721 3.50907 2.45412 3.91772 2.27397C4.32637 2.09383 4.76813 2.00058 5.21487 2.00016H10.0417C10.8226 1.99249 11.5795 2.26844 12.1716 2.77659C12.7636 3.28475 13.1503 3.99041 13.2596 4.76207C13.4634 6.30371 13.8412 7.8174 14.3859 9.27426C14.6024 9.84901 14.6492 10.4736 14.5209 11.0741C14.3926 11.6746 14.0945 12.2258 13.6619 12.6624L11.6185 14.7017C13.9089 18.7218 17.2441 22.0504 21.2722 24.3363L23.3156 22.297C23.753 21.8653 24.3053 21.5677 24.907 21.4397C25.5087 21.3116 26.1346 21.3584 26.7105 21.5744C28.1702 22.118 29.6869 22.4951 31.2316 22.6984C32.0132 22.8085 32.727 23.2014 33.2372 23.8024C33.7475 24.4034 34.0186 25.1706 33.999 25.9581Z" stroke="#F4F4F2" stroke-width="3" stroke-linecap="round" stroke-linejoin="round"/>
</svg>
