<?xml version="1.0" encoding="UTF-8"?>
<svg version="1.1" xmlns="http://www.w3.org/2000/svg" width="96" height="96">
<path d="M0 0 C3.90518233 0.79006211 5.95860177 2.69982203 8.65234375 5.46240234 C9.15673477 5.96105301 9.66112579 6.45970367 10.18080139 6.97346497 C11.23933138 8.02792396 12.29036979 9.08995077 13.33422852 10.15893555 C14.93625008 11.79315855 16.5678661 13.39281904 18.20507812 14.99169922 C19.23109656 16.02168139 20.25525279 17.05352268 21.27734375 18.08740234 C22.01149757 18.80333809 22.01149757 18.80333809 22.76048279 19.53373718 C24.09741211 20.92797852 24.09741211 20.92797852 26 23.60693359 C25.79516602 26.4519043 25.79516602 26.4519043 25 28.60693359 C23.35 28.60693359 21.7 28.60693359 20 28.60693359 C14.72 23.32693359 9.44 18.04693359 4 12.60693359 C3.67 30.42693359 3.34 48.24693359 3 66.60693359 C1.02 66.60693359 -0.96 66.60693359 -3 66.60693359 C-3.33 48.78693359 -3.66 30.96693359 -4 12.60693359 C-9.28 17.88693359 -14.56 23.16693359 -20 28.60693359 C-21.65 28.60693359 -23.3 28.60693359 -25 28.60693359 C-25.79516602 26.4519043 -25.79516602 26.4519043 -26 23.60693359 C-24.48852249 21.47868482 -23.12112602 19.88543102 -21.27734375 18.08740234 C-20.77964981 17.58396805 -20.28195587 17.08053375 -19.7691803 16.56184387 C-18.71294588 15.50152898 -17.64910604 14.44874404 -16.57836914 13.40307617 C-14.94632557 11.80308583 -13.34867428 10.17372903 -11.75195312 8.53857422 C-10.72066764 7.51125495 -9.68752174 6.48579922 -8.65234375 5.46240234 C-7.93944435 4.73128487 -7.93944435 4.73128487 -7.21214294 3.98539734 C-4.85765682 1.72703672 -3.2172196 0.65087955 0 0 Z " fill="#000000" transform="translate(48,14.39306640625)"/>
</svg>
