<?xml version="1.0" encoding="UTF-8"?>
<svg version="1.1" xmlns="http://www.w3.org/2000/svg" width="100" height="100">
<path d="M0 0 C6.65234279 7.52765105 5.5561741 18.52304539 5.5625 28.0625 C5.57474609 29.02671875 5.58699219 29.9909375 5.59960938 30.984375 C5.63449864 48.33596748 5.63449864 48.33596748 1.0625 54.25 C-8.29656961 62.73845848 -25.82714283 60.09766428 -37.625 59.6875 C-45.09160457 59.16221124 -50.53999281 58.44158708 -55.625 52.6875 C-59.6780682 45.54637984 -58.80750896 35.83571177 -58.8125 27.875 C-58.82474609 26.85857422 -58.83699219 25.84214844 -58.84960938 24.79492188 C-58.88354648 7.04581401 -58.88354648 7.04581401 -54.3125 1.125 C-44.15510543 -8.08752065 -10.7071573 -8.06842659 0 0 Z M-47.625 4.6875 C-55.01923033 13.80280118 -51.81167227 31.97185285 -51.13671875 42.99609375 C-50.52327848 46.22250858 -49.69839835 48.13150031 -47.625 50.6875 C-36.59843527 54.65304756 -16.65156473 54.65304756 -5.625 50.6875 C1.76923033 41.57219882 -1.43832773 23.40314715 -2.11328125 12.37890625 C-2.72672152 9.15249142 -3.55160165 7.24349969 -5.625 4.6875 C-16.65156473 0.72195244 -36.59843527 0.72195244 -47.625 4.6875 Z " fill="#000000" transform="translate(76.625,22.3125)"/>
<path d="M0 0 C4.36563955 3.40519885 6.65875906 6.44779007 7.50390625 11.8671875 C7.78817485 17.90101785 6.84570953 21.66735957 3.125 26.4375 C-1.64514043 30.15820953 -5.41148215 31.10067485 -11.4453125 30.81640625 C-16.86470993 29.97125906 -19.90730115 27.67813955 -23.3125 23.3125 C-25.8128279 18.26854848 -25.92696073 12.71164997 -24.21484375 7.3828125 C-22.32987667 3.58023822 -19.73226178 0.98262333 -15.9296875 -0.90234375 C-10.60085003 -2.61446073 -5.04395152 -2.5003279 0 0 Z M-15.875 8.4375 C-17.80363839 10.97979606 -17.88402291 12.22095018 -17.75 15.4375 C-16.72586454 18.94882158 -15.82048102 20.28809493 -12.875 22.4375 C-9.28119396 23.58445938 -7.60753748 23.753823 -4.125 22.25 C-1.7380936 20.32721429 -0.71316999 19.37109496 0.125 16.4375 C-0.02186155 12.91282271 -0.47551989 10.9849357 -2.5625 8.125 C-7.39128795 4.60128987 -11.25486049 4.71572095 -15.875 8.4375 Z " fill="#000000" transform="translate(58.875,35.5625)"/>
<path d="M0 0 C1.66611905 -0.042721 3.33382885 -0.04063832 5 0 C6 1 6 1 6.0625 3.5625 C6.041875 4.366875 6.02125 5.17125 6 6 C3.625 6.625 3.625 6.625 1 7 C0.34 6.34 -0.32 5.68 -1 5 C-0.625 2.375 -0.625 2.375 0 0 Z " fill="#000000" transform="translate(63,31)"/>
</svg>
