<?xml version="1.0" encoding="UTF-8"?>
<svg version="1.1" xmlns="http://www.w3.org/2000/svg" width="100" height="100">
<path d="M0 0 C1.32598457 -0.0049926 1.32598457 -0.0049926 2.67875671 -0.01008606 C4.54551678 -0.01513784 6.41228584 -0.01749493 8.27905273 -0.01733398 C11.11652736 -0.01951572 13.95360994 -0.03767697 16.79101562 -0.05664062 C18.61067576 -0.05957596 20.43033774 -0.06155982 22.25 -0.0625 C23.0898494 -0.06968552 23.92969879 -0.07687103 24.79499817 -0.08427429 C37.46848329 -0.03578377 37.46848329 -0.03578377 41.76171875 3.98046875 C44.31925236 9.24597913 43.98487385 14.87374952 43.9921875 20.59765625 C43.9971801 21.9604924 43.9971801 21.9604924 44.00227356 23.3508606 C44.00732551 25.26889542 44.00968242 27.186939 44.00952148 29.10498047 C44.01170596 32.0258648 44.02987456 34.94637001 44.04882812 37.8671875 C44.05176288 39.7356758 44.05374713 41.60416588 44.0546875 43.47265625 C44.06187302 44.33954071 44.06905853 45.20642517 44.07646179 46.09957886 C44.03277973 57.80165342 44.03277973 57.80165342 40.07421875 62.04296875 C34.73105487 64.71455069 28.61016984 64.32800039 22.76953125 64.3359375 C21.47896317 64.3409301 21.47896317 64.3409301 20.162323 64.34602356 C18.34861787 64.35106831 16.53490354 64.35343265 14.72119141 64.35327148 C11.96501176 64.35545623 9.20923389 64.37363326 6.453125 64.39257812 C4.68359511 64.39551302 2.91406333 64.39749717 1.14453125 64.3984375 C0.32969269 64.40562302 -0.48514587 64.41280853 -1.32467651 64.42021179 C-13.82084223 64.37097622 -13.82084223 64.37097622 -18.11328125 60.35546875 C-20.67081486 55.08995837 -20.33643635 49.46218798 -20.34375 43.73828125 C-20.3470784 42.82972382 -20.3504068 41.92116638 -20.35383606 40.9850769 C-20.35888801 39.06704208 -20.36124492 37.1489985 -20.36108398 35.23095703 C-20.36326846 32.3100727 -20.38143706 29.38956749 -20.40039062 26.46875 C-20.40332538 24.6002617 -20.40530963 22.73177162 -20.40625 20.86328125 C-20.41343552 19.99639679 -20.42062103 19.12951233 -20.42802429 18.23635864 C-20.38403646 6.45237069 -20.38403646 6.45237069 -16.36328125 2.29296875 C-11.2249684 -0.34959215 -5.63769276 0.00741647 0 0 Z M-12.17578125 9.16796875 C-13.53034551 13.62504183 -13.33628395 18.31078969 -13.34375 22.9453125 C-13.3470784 23.67488663 -13.3504068 24.40446075 -13.35383606 25.15614319 C-13.35887416 26.69157282 -13.36124535 28.22701329 -13.36108398 29.76245117 C-13.3632715 32.09507471 -13.38146286 34.42722547 -13.40039062 36.75976562 C-13.40332512 38.25911298 -13.40530954 39.75846256 -13.40625 41.2578125 C-13.41343552 41.94656967 -13.42062103 42.63532684 -13.42802429 43.34495544 C-13.4062945 48.01216724 -12.61468523 51.77997102 -11.17578125 56.16796875 C-6.79400132 57.24554372 -2.50889578 57.32921787 1.9765625 57.3359375 C2.75431534 57.3392659 3.53206818 57.3425943 4.33338928 57.34602356 C5.97314872 57.35107049 7.61291835 57.35343258 9.25268555 57.35327148 C11.75001048 57.3554585 14.24689368 57.37363909 16.74414062 57.39257812 C18.34244642 57.39551249 19.94075429 57.397497 21.5390625 57.3984375 C22.65026711 57.40921577 22.65026711 57.40921577 23.78392029 57.42021179 C28.17859017 57.40101039 31.73956607 56.7898575 35.82421875 55.16796875 C36.72263939 50.55398504 36.98463804 46.07692924 36.9921875 41.390625 C36.9955159 40.66105087 36.9988443 39.93147675 37.00227356 39.17979431 C37.00731166 37.64436468 37.00968285 36.10892421 37.00952148 34.57348633 C37.011709 32.24086279 37.02990036 29.90871203 37.04882812 27.57617188 C37.05176262 26.07682452 37.05374704 24.57747494 37.0546875 23.078125 C37.06187302 22.38936783 37.06905853 21.70061066 37.07646179 20.99098206 C37.054732 16.32377026 36.26312273 12.55596648 34.82421875 8.16796875 C30.65287236 7.00349247 26.60006911 7.00602448 22.296875 7 C21.47094345 6.9966716 20.6450119 6.9933432 19.79405212 6.98991394 C18.04996293 6.98485921 16.30586409 6.98250517 14.56176758 6.98266602 C11.89973975 6.98047945 9.23812645 6.9623083 6.57617188 6.94335938 C4.87890766 6.94042513 3.18164149 6.93844054 1.484375 6.9375 C0.69152603 6.93031448 -0.10132294 6.92312897 -0.91819763 6.91572571 C-6.86285152 6.88038073 -6.86285152 6.88038073 -12.17578125 9.16796875 Z " fill="#000000" transform="translate(38.17578125,17.83203125)"/>
<path d="M0 0 C3.66666667 0 7.33333333 0 11 0 C12.04994141 -0.05220703 12.04994141 -0.05220703 13.12109375 -0.10546875 C19.37711578 -0.32701422 19.37711578 -0.32701422 22.5 1.3125 C25.13646182 4.27851954 25.1206018 7.1007038 25.09765625 10.88671875 C25.09443359 11.82451172 25.09121094 12.76230469 25.08789062 13.72851562 C25.07951172 14.70498047 25.07113281 15.68144531 25.0625 16.6875 C25.05798828 17.67556641 25.05347656 18.66363281 25.04882812 19.68164062 C25.0370432 22.12111958 25.01910783 24.56056741 25 27 C22.03 27 19.06 27 16 27 C15.67 21.06 15.34 15.12 15 9 C13.35 9 11.7 9 10 9 C9.34 14.94 8.68 20.88 8 27 C5.36 27 2.72 27 0 27 C0 18.09 0 9.18 0 0 Z " fill="#000000" transform="translate(44,41)"/>
<path d="M0 0 C2.97 0 5.94 0 9 0 C9 8.91 9 17.82 9 27 C6.03 27 3.06 27 0 27 C0 18.09 0 9.18 0 0 Z " fill="#000000" transform="translate(31,41)"/>
<path d="M0 0 C1.125 6.75 1.125 6.75 0 9 C-2.3125 9.8125 -2.3125 9.8125 -5 10 C-7.3125 8.875 -7.3125 8.875 -9 7 C-9.5 4.5 -9.5 4.5 -9 2 C-6.04897468 -1.27891703 -4.09533092 -1.25135112 0 0 Z " fill="#000000" transform="translate(39,29)"/>
</svg>
