<svg width="21" height="21" viewBox="0 0 21 21" fill="none" xmlns="http://www.w3.org/2000/svg">
<path d="M20.4994 15.4738V18.4846C20.5005 18.7642 20.4432 19.0408 20.331 19.2969C20.2188 19.553 20.0542 19.7829 19.8478 19.9719C19.6415 20.1608 19.3978 20.3047 19.1325 20.3942C18.8672 20.4838 18.5861 20.517 18.3072 20.4919C15.2128 20.1563 12.2404 19.101 9.6289 17.4108C7.19921 15.8699 5.13926 13.8141 3.59534 11.3892C1.89586 8.77099 0.838241 5.79008 0.508162 2.68795C0.483033 2.41042 0.516081 2.13071 0.605202 1.86663C0.694324 1.60254 0.837566 1.35987 1.02581 1.15407C1.21405 0.948259 1.44317 0.783825 1.69858 0.671234C1.95398 0.558642 2.23008 0.50036 2.5093 0.500097H5.52608C6.0141 0.495304 6.48722 0.667778 6.85725 0.985372C7.22727 1.30297 7.46896 1.74401 7.53727 2.22629C7.6646 3.18982 7.90074 4.13587 8.24118 5.04642C8.37648 5.40563 8.40576 5.79602 8.32556 6.17133C8.24536 6.54665 8.05903 6.89115 7.78867 7.16402L6.51156 8.43859C7.94308 10.9512 10.0276 13.0315 12.5451 14.4602L13.8222 13.1856C14.0956 12.9158 14.4408 12.7298 14.8169 12.6498C15.1929 12.5698 15.5841 12.599 15.944 12.734C16.8564 13.0738 17.8043 13.3095 18.7698 13.4365C19.2582 13.5053 19.7044 13.7509 20.0233 14.1265C20.3422 14.5021 20.5116 14.9817 20.4994 15.4738Z" stroke="#F0F0F0" stroke-linecap="round" stroke-linejoin="round"/>
</svg>
