<svg width="86" height="26" viewBox="0 0 86 26" fill="none" xmlns="http://www.w3.org/2000/svg">
<path d="M15.7891 21.5503V25.2417H3.2793V21.5503H15.7891ZM4.69775 0.358887V25.2417H-0.00195312V0.358887H4.69775ZM37.9546 12.168V13.4497C37.9546 15.3296 37.7039 17.0215 37.2026 18.5254C36.7013 20.0179 35.9893 21.2882 35.0664 22.3364C34.1436 23.3846 33.0441 24.1878 31.7681 24.7461C30.492 25.3044 29.0736 25.5835 27.5127 25.5835C25.9746 25.5835 24.5618 25.3044 23.2744 24.7461C21.9984 24.1878 20.8932 23.3846 19.959 22.3364C19.0247 21.2882 18.3013 20.0179 17.7886 18.5254C17.2759 17.0215 17.0195 15.3296 17.0195 13.4497V12.168C17.0195 10.2767 17.2759 8.5848 17.7886 7.09229C18.3013 5.59977 19.019 4.32943 19.9419 3.28125C20.8647 2.22168 21.9642 1.41276 23.2402 0.854492C24.5277 0.296224 25.9404 0.0170898 27.4785 0.0170898C29.0394 0.0170898 30.4578 0.296224 31.7339 0.854492C33.0099 1.41276 34.1094 2.22168 35.0322 3.28125C35.9665 4.32943 36.6842 5.59977 37.1855 7.09229C37.6982 8.5848 37.9546 10.2767 37.9546 12.168ZM33.2036 13.4497V12.1338C33.2036 10.778 33.0783 9.5874 32.8276 8.56201C32.577 7.52523 32.2067 6.65365 31.7168 5.94727C31.2269 5.24089 30.623 4.7111 29.9053 4.35791C29.1875 3.99333 28.3786 3.81104 27.4785 3.81104C26.5671 3.81104 25.7581 3.99333 25.0518 4.35791C24.3568 4.7111 23.7643 5.24089 23.2744 5.94727C22.7845 6.65365 22.4085 7.52523 22.1465 8.56201C21.8958 9.5874 21.7705 10.778 21.7705 12.1338V13.4497C21.7705 14.7941 21.8958 15.9847 22.1465 17.0215C22.4085 18.0583 22.7845 18.9355 23.2744 19.6533C23.7757 20.3597 24.3796 20.8952 25.0859 21.2598C25.7923 21.6243 26.6012 21.8066 27.5127 21.8066C28.4242 21.8066 29.2331 21.6243 29.9395 21.2598C30.6458 20.8952 31.2383 20.3597 31.7168 19.6533C32.2067 18.9355 32.577 18.0583 32.8276 17.0215C33.0783 15.9847 33.2036 14.7941 33.2036 13.4497ZM61.3506 12.373V22.063C60.986 22.5301 60.4106 23.0371 59.6245 23.584C58.8498 24.1309 57.8358 24.6037 56.5825 25.0024C55.3293 25.3898 53.7912 25.5835 51.9683 25.5835C50.3846 25.5835 48.9377 25.3215 47.6274 24.7974C46.3172 24.2619 45.1893 23.4814 44.2437 22.4561C43.298 21.4307 42.5688 20.1774 42.0562 18.6963C41.5435 17.2152 41.2871 15.5233 41.2871 13.6206V11.98C41.2871 10.0773 41.5264 8.38542 42.0049 6.9043C42.4948 5.42318 43.1898 4.16992 44.0898 3.14453C45.0013 2.11914 46.0894 1.3387 47.354 0.803223C48.63 0.267741 50.0542 0 51.6265 0C53.7342 0 55.466 0.347493 56.8218 1.04248C58.189 1.73747 59.2371 2.6945 59.9663 3.91357C60.6955 5.12126 61.1512 6.51123 61.3335 8.0835H56.7534C56.6281 7.21761 56.3774 6.45996 56.0015 5.81055C55.6255 5.14974 55.09 4.63704 54.395 4.27246C53.7114 3.89648 52.8228 3.7085 51.729 3.7085C50.8062 3.7085 49.9915 3.89079 49.2852 4.25537C48.5788 4.61995 47.9863 5.14974 47.5078 5.84473C47.0293 6.53971 46.6647 7.3999 46.4141 8.42529C46.1748 9.45068 46.0552 10.6242 46.0552 11.9458V13.6206C46.0552 14.9536 46.1919 16.1385 46.4653 17.1753C46.7388 18.2007 47.1318 19.0666 47.6445 19.7729C48.1686 20.4679 48.8123 20.9977 49.5757 21.3623C50.3504 21.7155 51.2277 21.8921 52.2075 21.8921C53.0962 21.8921 53.8311 21.818 54.4121 21.6699C55.0046 21.5104 55.4774 21.3224 55.8306 21.106C56.1838 20.8895 56.4572 20.6787 56.6509 20.4736V15.8081H51.7119V12.373H61.3506ZM85.9429 12.168V13.4497C85.9429 15.3296 85.6922 17.0215 85.1909 18.5254C84.6896 20.0179 83.9775 21.2882 83.0547 22.3364C82.1318 23.3846 81.0324 24.1878 79.7563 24.7461C78.4803 25.3044 77.0618 25.5835 75.501 25.5835C73.9629 25.5835 72.5501 25.3044 71.2627 24.7461C69.9867 24.1878 68.8815 23.3846 67.9473 22.3364C67.013 21.2882 66.2896 20.0179 65.7769 18.5254C65.2642 17.0215 65.0078 15.3296 65.0078 13.4497V12.168C65.0078 10.2767 65.2642 8.5848 65.7769 7.09229C66.2896 5.59977 67.0073 4.32943 67.9302 3.28125C68.853 2.22168 69.9525 1.41276 71.2285 0.854492C72.516 0.296224 73.9287 0.0170898 75.4668 0.0170898C77.0277 0.0170898 78.4461 0.296224 79.7222 0.854492C80.9982 1.41276 82.0977 2.22168 83.0205 3.28125C83.9548 4.32943 84.6725 5.59977 85.1738 7.09229C85.6865 8.5848 85.9429 10.2767 85.9429 12.168ZM81.1919 13.4497V12.1338C81.1919 10.778 81.0666 9.5874 80.8159 8.56201C80.5653 7.52523 80.195 6.65365 79.7051 5.94727C79.2152 5.24089 78.6113 4.7111 77.8936 4.35791C77.1758 3.99333 76.3669 3.81104 75.4668 3.81104C74.5553 3.81104 73.7464 3.99333 73.04 4.35791C72.3451 4.7111 71.7526 5.24089 71.2627 5.94727C70.7728 6.65365 70.3968 7.52523 70.1348 8.56201C69.8841 9.5874 69.7588 10.778 69.7588 12.1338V13.4497C69.7588 14.7941 69.8841 15.9847 70.1348 17.0215C70.3968 18.0583 70.7728 18.9355 71.2627 19.6533C71.764 20.3597 72.3678 20.8952 73.0742 21.2598C73.7806 21.6243 74.5895 21.8066 75.501 21.8066C76.4124 21.8066 77.2214 21.6243 77.9277 21.2598C78.6341 20.8952 79.2266 20.3597 79.7051 19.6533C80.195 18.9355 80.5653 18.0583 80.8159 17.0215C81.0666 15.9847 81.1919 14.7941 81.1919 13.4497Z" fill="#F0F0F0"/>
</svg>
