<?xml version="1.0" encoding="UTF-8"?>
<svg version="1.1" xmlns="http://www.w3.org/2000/svg" width="100" height="100">
<path d="M0 0 C6.1844684 4.42228775 8.69304538 9.9054944 11 17 C11.495 18.485 11.495 18.485 12 20 C14.15819198 21.10375055 14.15819198 21.10375055 16.75 21.9375 C23.40244552 24.46770364 27.27950419 27.24961889 30.2734375 33.78515625 C31.93205065 38.84125117 31.62177488 43.29830032 29.8125 48.25 C28 51 28 51 25.25 53.5625 C22.71018667 55.74592473 22.71018667 55.74592473 23.0625 58.4375 C23.371875 59.283125 23.68125 60.12875 24 61 C24.66963109 62.99900942 25.33663729 64.99890171 26 67 C25.23558594 66.65066406 24.47117187 66.30132812 23.68359375 65.94140625 C15.97919841 62.66866069 9.91274544 61.61297328 1.5234375 61.29296875 C-6.20734736 60.65016513 -12.61258986 57.5220954 -18 52 C-19.375 49.1875 -19.375 49.1875 -20 47 C-21.794375 47.0309375 -21.794375 47.0309375 -23.625 47.0625 C-26.28493531 47.08113352 -28.32062433 46.92496026 -30.9375 46.3125 C-35.37705308 45.85948438 -38.90406055 47.38893048 -43 49 C-42.505 47.865625 -42.01 46.73125 -41.5 45.5625 C-40.80973699 43.35553471 -40.80973699 43.35553471 -41 41 C-42.76991144 38.3933235 -44.8050321 36.31920884 -47.015625 34.078125 C-51.46945405 29.41387883 -51.45044454 23.90018074 -51.30859375 17.7421875 C-50.54126751 10.92366828 -46.82308011 6.1446432 -41.93359375 1.5390625 C-30.10019714 -7.87984309 -12.63264616 -7.59887418 0 0 Z M-41 11 C-43.78895844 15.67825286 -44.54437483 19.43347181 -43.6953125 24.7265625 C-41.95320754 30.4226585 -38.31471667 34.59185654 -33.125 37.4375 C-29.12393126 39.1908641 -25.33814526 39.69013248 -21 40 C-20.82984375 39.40832031 -20.6596875 38.81664062 -20.484375 38.20703125 C-18.49042117 31.70546903 -16.4969176 27.17466354 -10.3125 23.8125 C-6.02599789 21.81859035 -1.63908754 20.81613577 3 20 C2.86523981 14.60959241 0.70746607 11.6238234 -2.85546875 7.8359375 C-8.76391023 2.77770891 -15.68469317 1.30020283 -23.328125 1.61328125 C-30.30265322 2.62275244 -36.12466716 6.00858781 -41 11 Z M-11.5 33.25 C-13.49561738 35.8596535 -14.03757455 37.1753479 -14.75 40.5 C-13.72711236 45.27347568 -11.73691854 47.90985582 -8 51 C-2.49142832 54.331038 3.70806964 54.87522988 10 54 C15.57384061 52.37756752 20.08471976 50.22321043 23 45 C24.23324242 40.76072918 24.39188163 38.83274847 22.5 34.8125 C18.63029744 30.45908462 13.75129295 27.34647821 7.80078125 26.796875 C0.05676066 26.65099078 -5.95788906 27.48775848 -11.5 33.25 Z " fill="#000000" transform="translate(60,22)"/>
<path d="M0 0 C1 1 1 1 1.1875 3.4375 C1 6 1 6 -1 8 C-3.5 8.3125 -3.5 8.3125 -6 8 C-8 5 -8 5 -7.75 2.375 C-7.5025 1.59125 -7.255 0.8075 -7 0 C-4.31633121 -1.3418344 -2.84719317 -0.73004953 0 0 Z " fill="#000000" transform="translate(76,55)"/>
<path d="M0 0 C2.375 -0.125 2.375 -0.125 5 0 C7 2 7 2 7.125 4.625 C7.08375 5.40875 7.0425 6.1925 7 7 C5.35 7.66 3.7 8.32 2 9 C0.68 7.68 -0.64 6.36 -2 5 C-1.34 3.35 -0.68 1.7 0 0 Z " fill="#000000" transform="translate(48,31)"/>
<path d="M0 0 C3 0.125 3 0.125 4 1.125 C4.04080783 3.12458364 4.04254356 5.12545254 4 7.125 C1.6875 8.25 1.6875 8.25 -1 9.125 C-1.99 8.465 -2.98 7.805 -4 7.125 C-4.25 4.0625 -4.25 4.0625 -4 1.125 C-3 0.125 -3 0.125 0 0 Z " fill="#000000" transform="translate(29,30.875)"/>
<path d="M0 0 C4.55555556 0.55555556 4.55555556 0.55555556 6 2 C6.1875 4.4375 6.1875 4.4375 6 7 C5.34 7.66 4.68 8.32 4 9 C-0.55555556 8.44444444 -0.55555556 8.44444444 -2 7 C-2.1875 4.5625 -2.1875 4.5625 -2 2 C-1.34 1.34 -0.68 0.68 0 0 Z " fill="#000000" transform="translate(55,54)"/>
</svg>
