<?xml version="1.0" encoding="UTF-8"?>
<svg version="1.1" xmlns="http://www.w3.org/2000/svg" width="100" height="100">
<path d="M0 0 C7.42602506 6.89677606 10.87734137 15.68782677 11.25 25.6875 C11.09859562 35.89215549 7.28688393 44.30740796 0.37109375 51.75390625 C-7.22127984 58.78257692 -16.18315954 61.28335262 -26.32421875 61.23828125 C-29.10596447 60.99056375 -31.3655086 60.34608837 -34 59.4375 C-39.32253356 57.6660943 -43.53863113 58.1513873 -49 59 C-50.87395578 59.19766383 -52.74898275 59.38546739 -54.625 59.5625 C-55.46289062 59.64628906 -56.30078125 59.73007813 -57.1640625 59.81640625 C-57.76992188 59.87699219 -58.37578125 59.93757813 -59 60 C-58.67644531 58.85402344 -58.35289063 57.70804687 -58.01953125 56.52734375 C-57.61600736 54.99770667 -57.21372933 53.46774055 -56.8125 51.9375 C-56.59658203 51.18533203 -56.38066406 50.43316406 -56.15820312 49.65820312 C-54.70507805 43.96884904 -55.22607824 41.16839196 -58 36 C-60.73061745 26.81519586 -59.15846348 16.92451181 -54.7109375 8.58203125 C-48.97520557 -0.57366919 -41.8336139 -5.58965726 -31.5625 -8.75 C-19.416213 -9.93500361 -9.60260616 -7.83322 0 0 Z M-46.6796875 10.15234375 C-50.49954082 15.49787813 -52.20143472 21.47987628 -52 28 C-51.0804476 32.43899038 -49.66006103 36.58086879 -47.75 40.6875 C-46.68266316 43.97845525 -47.34440708 46.65647609 -48 50 C-47.35933594 49.96519531 -46.71867187 49.93039063 -46.05859375 49.89453125 C-40.14823633 49.70955732 -36.44143928 50.52661851 -31 53 C-22.88075463 55.06033482 -16.0001817 53.15394399 -8.75 49.25 C-1.93655123 43.67536009 2.39720987 37.53868511 3.875 28.6875 C4.51087399 21.08296614 1.78792565 13.85190913 -3 8 C-8.68458855 1.80146235 -15.83738653 -1.27723411 -24.125 -2.4375 C-33.43431384 -1.02086529 -40.71445217 2.79730228 -46.6796875 10.15234375 Z " fill="#000000" transform="translate(74,24)"/>
<path d="M0 0 C2.9893532 1.79361192 3.71797376 3.89750576 4.875 7.125 C4.5625 10.3125 4.5625 10.3125 3.875 13.125 C3.55117579 16.29088054 3.55117579 16.29088054 6 18.625 C8.83884794 21.09356343 11.44885733 22.61112301 14.875 24.125 C15.865 22.805 16.855 21.485 17.875 20.125 C19.35534764 20.60050561 20.83425021 21.08051216 22.3125 21.5625 C23.13621094 21.82933594 23.95992187 22.09617187 24.80859375 22.37109375 C26.875 23.125 26.875 23.125 27.875 24.125 C27.625 27.5625 27.625 27.5625 26.875 31.125 C22.55966132 34.00189245 18.93878954 33.81356062 13.875 33.125 C5.20052594 30.24208874 -2.21097704 24.25325282 -6.4609375 16.0859375 C-7.80430209 12.11906089 -7.9564671 8.21837647 -7.125 4.125 C-4.82387591 1.37643512 -3.60583305 0.21210783 0 0 Z " fill="#000000" transform="translate(40.125,32.875)"/>
</svg>
